# xmcd
#
# Track frame offsets:
#	150
#	29058
#	53464
#	76014
#	92591
#	122905
#	147058
#	167665
#	190279
#	213406
#	241309
#	256530
#	279456
#	305158
#	320907
#
# Disc length: 4503
#
# Revision: 6
# Processed by: cddbd v1.5.1PL0 Copyright (c) Steve Scherf et al.
# Submitted via: EasyCDDAExtractor 4.6.9.1
# Normalized: r5:DSETVAR1,TDELIM( - )
#
DISCID=ce11950f
DTITLE=Various Artist - Monte Carlo Nights Nouveau Beat Vol.1 Cool Dance [CD 2)
DYEAR=2001
DGENRE=Lounge
TTITLE0=Boozoo - Night Over Manaus
TTITLE1=Bob Belden Project Ft. Cassandra Wilson and Dianne Reeves - Come Together
TTITLE2=Gotan Project - Last Tango In Paris
TTITLE3=Time Passing - Bossample
TTITLE4=Ronny Jordan - London Lowdown
TTITLE5=Shazz Ft. Ken Norris - Innerside (Universal Soul Mix)
TTITLE6=Billy Preston - You Are So Beautiful (Harley and Muscle Deep Mix)
TTITLE7=Da Lata - Pra Manha (Patrick Forge Remix)
TTITLE8=Masya Leak - The Bottle
TTITLE9=Russ Gabriel - Jelba
TTITLE10=Nigel Hayes - Que Pasa
TTITLE11=Soulstice - Lovely
TTITLE12=Tom and Joyce - Vai Minha Tristeza
TTITLE13=Salome De Bahia - Outro Lugar
TTITLE14=Los Drones - Las Luces Del Norte (Dave Warrin Open Air Dub)
EXTD=
EXTT0=
EXTT1=
EXTT2=
EXTT3=
EXTT4=
EXTT5=
EXTT6=
EXTT7=
EXTT8=
EXTT9=
EXTT10=
EXTT11=
EXTT12=
EXTT13=
EXTT14=
PLAYORDER=
